<?xml version="1.0" standalone="no"?><!DOCTYPE svg PUBLIC "-//W3C//DTD SVG 1.1//EN" "http://www.w3.org/Graphics/SVG/1.1/DTD/svg11.dtd"><svg t="1636895865285" class="icon" viewBox="0 0 1024 1024" version="1.1" xmlns="http://www.w3.org/2000/svg" p-id="3537" xmlns:xlink="http://www.w3.org/1999/xlink" width="200" height="200"><defs><style type="text/css"></style></defs><path d="M128 213.333333h128v42.666667H128V213.333333z m0 128h128v42.666667H128V341.333333z m0 128h128v42.666667H128v-42.666667z m0 128h128v42.666667H128v-42.666667z m0 128h128v42.666667H128v-42.666667z m42.666667 170.666667v-42.666667h640.298666c22.997333 0 42.368-19.413333 42.368-43.050666V171.093333A42.666667 42.666667 0 0 0 810.965333 128H170.666667V42.666667h640.298666A128 128 0 0 1 938.666667 171.050667V810.24C938.666667 881.194667 880.938667 938.666667 810.965333 938.666667H170.666667v-42.666667z" p-id="3538" fill="#42b983"></path></svg>